# xmcd CD database file
#
# Track frame offsets:
#	150
#	13303
#	28555
#	44293
#	60853
#	77427
#	91459
#	108565
#	127186
#	140505
#	155834
#	172328
#
# Disc length: 2484 seconds
#
# Revision: 0
# Processed by: cddbd v1.5.1PL2 Copyright (c) Steve Scherf et al.
# Submitted via: CDex 1.51
#
DISCID=a309b20c
DTITLE=Becky Hobbs - Songs From the Road of Life
DYEAR=2004
DGENRE=Country
TTITLE0=Woman Gettin' Older
TTITLE1=Another Man in Black
TTITLE2=Time Stands Still
TTITLE3=No More War
TTITLE4=Vienna
TTITLE5=What Are You Doin' In My Dreams
TTITLE6=Girls Night In
TTITLE7=Let There Be Peace
TTITLE8=Live Until You Die
TTITLE9=Mama Saw Paris
TTITLE10=Heart
TTITLE11=Kiss My Ashes
EXTD=YEAR: 2004
EXTT0=
EXTT1=
EXTT2=
EXTT3=
EXTT4=
EXTT5=
EXTT6=
EXTT7=
EXTT8=
EXTT9=
EXTT10=
EXTT11=
PLAYORDER=
